<svg width="16" height="16" viewBox="0 0 16 16" fill="none" xmlns="http://www.w3.org/2000/svg">
<g clip-path="url(#clip0_10_984)">
<path d="M15.2259 6.8488H14.6173V6.81775H7.81859V9.83941H12.0875C11.7638 10.7553 11.1544 11.543 10.3491 12.0864C9.54382 12.6297 8.58527 12.8999 7.61477 12.8572C6.64426 12.8145 5.71316 12.4611 4.95872 11.8491C4.20428 11.2371 3.66642 10.3989 3.42444 9.45811C3.18246 8.51729 3.24916 7.52361 3.6147 6.62356C3.98025 5.72352 4.62529 4.96473 5.45475 4.45906C6.28421 3.95339 7.25419 3.7276 8.2217 3.81497C9.1892 3.90233 10.103 4.29824 10.8285 4.94432L12.9655 2.80733C11.6954 1.62617 10.0573 0.918535 8.32667 0.8035C6.59607 0.688465 4.87867 1.17305 3.46345 2.17572C2.04822 3.17839 1.02156 4.63794 0.556229 6.30876C0.0908922 7.97959 0.215281 9.75971 0.908464 11.3496C1.60165 12.9395 2.82131 14.242 4.36223 15.0381C5.90314 15.8342 7.67125 16.0753 9.36903 15.7207C11.0668 15.3661 12.5906 14.4375 13.6841 13.0912C14.7775 11.7449 15.3739 10.063 15.3727 8.32858C15.3722 7.8317 15.323 7.33608 15.2259 6.8488Z" fill="#FFC107"/>
<path d="M1.13568 4.81248L3.61764 6.63303C3.88838 5.95925 4.31735 5.36056 4.8683 4.88755C5.41924 4.41455 6.07597 4.08114 6.78297 3.9155C7.48996 3.74987 8.22644 3.75688 8.93016 3.93594C9.63387 4.115 10.2841 4.46085 10.826 4.94426L12.9655 2.80728C12.1175 2.01359 11.0977 1.42656 9.98547 1.09197C8.87326 0.757379 7.69879 0.684283 6.55368 0.878385C5.40857 1.07249 4.32379 1.52854 3.38397 2.21095C2.44415 2.89337 1.67471 3.7837 1.13568 4.81248Z" fill="#FF3D00"/>
<path d="M7.81858 15.8827C9.69211 15.8829 11.4982 15.1837 12.8832 13.922L10.5456 11.9436C9.97956 12.3726 9.32039 12.6622 8.62154 12.7889C7.92268 12.9156 7.20381 12.8758 6.52318 12.6728C5.84256 12.4698 5.21933 12.1094 4.70403 11.6206C4.18872 11.1318 3.79583 10.5285 3.5572 9.85951L1.0979 11.7573C1.72897 12.9976 2.69064 14.0394 3.87668 14.7674C5.06271 15.4954 6.42692 15.8814 7.81858 15.8827Z" fill="#4CAF50"/>
<path d="M15.2258 6.84877H14.6173V6.81771H7.81854V9.83937H12.0875C11.7896 10.6765 11.253 11.4081 10.5439 11.9436L12.8815 13.922C13.6766 13.2253 14.3111 12.3645 14.7412 11.3988C15.1713 10.4331 15.3868 9.38558 15.3727 8.32854C15.3722 7.83167 15.323 7.33605 15.2258 6.84877Z" fill="#1976D2"/>
</g>
<defs>
<clipPath id="clip0_10_984">
<rect x="0.264404" y="0.774375" width="15.1083" height="15.1083" rx="7.55415" fill="white"/>
</clipPath>
</defs>
</svg>
